<!--?xml version="1.0" encoding="utf-8"?-->

<svg xmlns="http://www.w3.org/2000/svg" xmlns:xlink="http://www.w3.org/1999/xlink" width="193.008px" height="193.527px" viewBox="0 0 193.008 193.527">

	<g>
		<path fill="#ffad29" stroke="#000000" d="M103.534,0.751c-2.088,16.692-4.174,33.393-6.262,50.087
			c8.346-0.147,12.591,2.236,18.783,3.652c2.955-8,5.912-16.003,8.869-24c2.261,1.043,4.521,2.087,6.783,3.13
			c-4.869,7.13-9.226,14.615-14.095,21.745c0.175,0.348,10.183,5.833,13.101,9.826c0.869-0.694,1.688-0.616,2.558-1.312
			c10.606-11.825,21.22-23.653,31.826-35.479c0.349,0.176,0.694,0.35,1.044,0.521c2.781,3.478,5.564,6.957,8.348,10.435
			c-0.348,0.521-0.695,1.043-1.044,1.565c-13.911,8.695-27.456,17.257-41.366,25.953c0.349,0.348,0.323,0.831,0.672,1.177
			c2.607,4.869,4.543,9.102,7.152,13.971c7.303-3.479,15.282-6.318,22.586-9.797c0.695,2.437,1.393,4.87,2.088,7.307
			c-0.349,0-0.695,0-1.043,0c-7.652,1.391-15.307,2.781-22.957,4.174c0,0.693,0,1.392,0,2.087c0.521,4.173,0.76,7.389,1.281,11.562
			c16.693-1.563,33.676-2.172,50.37-3.735c-0.174,4.693-0.349,9.393-0.521,14.087c-16.521-2.782-33.047-5.564-49.565-8.35
			c-0.175,0.175-0.349,0.351-0.521,0.522c-0.389,7.084-2.926,10.224-4.313,15.991c8,2.781,15.616,6.791,23.614,9.572
			c-1.217,2.088-2.434,4.176-3.65,6.263c-0.35-0.35-0.693-0.695-1.043-1.043c-6.782-4.35-13.365-8.17-20.148-12.519
			c-1.529,4.152-5.689,9.137-9.59,10.952c1.602,4.669,32.897,30.689,38.606,34.957c-0.695,0.869-1.394,1.739-2.087,2.608
			c-3.131,2.261-6.262,4.521-9.393,6.78c-9.391-14.26-18.783-28.521-28.175-42.78c-4.694,2.606-8.731,5.162-13.428,7.77
			c4,7.825,7.342,15.709,11.341,23.535c-2.434,0.695-4.869,1.391-7.305,2.087c-0.174-0.174-0.348-0.349-0.521-0.521
			c-2.128-11.339-4.42-18.823-5.427-24.191c-4.836,1.662-7.938,2.407-14.466,2.411c1.393,17.216,1.805,33.782,3.194,50.997
			c-4.869-0.174-9.737-0.35-14.606-0.521c0-0.174,0-0.349,0-0.521c3.13-16.867,6.19-33.269,9.32-50.136
			c-0.348,0-0.625-0.474-0.972-0.474c-4.869-1.391-8.897-1.549-13.767-2.938c-2.434,8.347-5.712,15.462-8.146,23.81
			c-2.435-1.044-4.87-2.087-7.304-3.131c4.695-7.304,8.936-14.466,13.631-21.771c-4.348-3.13-7.891-5.832-12.238-8.962
			c-10.956,13.218-22.263,25.863-33.219,39.078c-2.087-1.912-4.174-3.826-6.261-5.739c-1.391-1.736-2.783-3.479-4.174-5.217
			c0.348,0,0.695,0,1.043,0c13.737-9.912,27.479-19.827,41.217-29.737c-2.903-4.521-5.606-6.643-8.068-11.896
			c-7.304,4-14.89,6.329-22.192,10.329c-1.043-2.261-2.087-4.521-3.131-6.782c0-0.174,0-0.349,0-0.521
			c8.173-1.738,16.349-3.479,24.522-5.219c-0.997-5.491-2.758-8.101-2.79-15.36c-17.042,1.913-33.907,2.493-50.949,4.404
			c0-3.65,0-7.305,0-10.955c0.174-1.045,0.348-2.089,0.522-3.133c16.868,2.608,33.741,5.22,50.608,7.826
			c-0.116-7.017,1.537-10.851,2.609-16.174c-0.174-0.174-0.348-0.348-0.522-0.521c-7.478-2.089-14.957-4.176-22.435-6.263
			c0-0.174,0-0.348,0-0.521c0.606-3.153,1.866-6.323,4.174-5.217c6.608,3.824,13.159,6.976,19.768,10.802
			c0.284-1.354,0.797-1.924,1.365-3.093c1.817-3.739,4.39-5.896,6.64-9.009c-0.348-0.521-1.016-1.253-1.364-1.773
			C49.42,53.504,37.444,43.01,24.749,33.098c2.261-2.434,4.522-4.87,6.783-7.304c1.043-0.87,2.087-1.739,3.13-2.609
			c0.522,0.35,1.043,0.696,1.565,1.043c9.564,13.042,19.131,26.088,28.695,39.131c0.696-0.694,1.392-1.392,2.087-2.087
			c3.825-2.435,7.652-4.87,11.478-7.305c-3.826-6.956-7.653-13.914-11.478-20.87c2.434-0.695,4.87-1.391,7.304-2.087
			c0.479,5.958,2.802,18.516,6.261,22.435c4.219-1.114,7.187-2.527,14.792-2.538c0-0.521-0.182-1.343-0.182-1.865
			c-2.261-16.173-3.48-32.12-5.741-48.292C94.142,0.751,98.838,0.751,103.534,0.751z" id="path-0" style="position: relative; fill: rgb(255, 173, 41);"></path>
	</g>
</svg>
